<?xml version="1.0" standalone="no"?>
<!DOCTYPE svg PUBLIC "-//W3C//DTD SVG 20010904//EN"
 "http://www.w3.org/TR/2001/REC-SVG-20010904/DTD/svg10.dtd">
<svg version="1.0" xmlns="http://www.w3.org/2000/svg"
 width="316.000000pt" height="312.000000pt" viewBox="0 0 316.000000 312.000000"
 preserveAspectRatio="xMidYMid meet">

<g transform="translate(0.000000,312.000000) scale(0.100000,-0.100000)"
fill="#000000" stroke="none">
<path d="M1415 3084 c-205 -31 -344 -73 -510 -155 -155 -76 -285 -169 -410
-294 -217 -218 -365 -497 -427 -808 -43 -218 -26 -547 40 -737 l19 -55 534 -3
534 -2 -32 20 -33 20 0 230 c0 126 2 230 6 230 3 0 106 -52 230 -116 l224
-116 2 -66 2 -67 3 63 c2 34 6 62 9 62 2 0 104 -50 225 -111 154 -77 223 -116
226 -130 5 -18 19 -19 507 -19 l501 0 22 77 c45 160 57 250 57 433 0 141 -4
197 -22 287 -62 311 -210 590 -427 808 -215 214 -486 362 -783 426 -73 15
-142 21 -282 24 -102 2 -198 1 -215 -1z m-287 -1192 l2 118 225 -112 c124 -62
225 -115 225 -118 0 -4 -410 -216 -441 -228 -4 -2 -10 27 -12 65 -2 37 -4 -70
-5 -238 l-2 -305 -230 115 -230 116 2 235 3 235 225 116 225 115 5 -115 6
-116 2 117z"/>
<path d="M1123 1725 c0 -22 2 -30 4 -17 2 12 2 30 0 40 -3 9 -5 -1 -4 -23z"/>
<path d="M1592 1130 c0 -14 2 -19 5 -12 2 6 2 18 0 25 -3 6 -5 1 -5 -13z"/>
<path d="M1591 1044 c0 -11 3 -14 6 -6 3 7 2 16 -1 19 -3 4 -6 -2 -5 -13z"/>
<path d="M820 820 c0 -5 16 -10 35 -10 l35 0 0 -105 c0 -93 2 -105 18 -105 15
0 17 12 17 102 l0 103 38 3 c73 6 35 22 -53 22 -53 0 -90 -4 -90 -10z"/>
<path d="M1075 820 c-29 -11 -46 -34 -55 -75 -23 -102 61 -176 149 -131 34 18
51 54 51 112 0 80 -70 125 -145 94z m95 -37 c18 -23 21 -37 17 -76 -5 -56 -29
-87 -68 -87 -39 0 -69 41 -69 95 0 85 73 127 120 68z"/>
<path d="M1280 714 l0 -116 65 4 c49 3 71 9 86 25 44 44 41 140 -6 181 -21 17
-38 22 -86 22 l-59 0 0 -116z m129 70 c14 -18 21 -41 21 -69 0 -60 -29 -95
-81 -95 l-39 0 0 95 0 95 39 0 c31 0 44 -6 60 -26z"/>
<path d="M1539 802 c-39 -35 -50 -102 -25 -150 42 -81 156 -67 186 24 38 115
-74 204 -161 126z m101 -2 c24 -13 42 -66 34 -106 -15 -81 -94 -101 -129 -33
-19 36 -19 72 0 109 20 39 56 51 95 30z"/>
<path d="M1768 715 l3 -115 55 0 c30 0 54 5 54 10 0 6 -18 10 -40 10 l-40 0 0
105 c0 93 -2 105 -17 105 -16 0 -18 -11 -15 -115z"/>
<path d="M1934 814 c3 -9 6 -60 6 -115 0 -81 3 -99 15 -99 12 0 15 19 15 115
0 110 -1 115 -21 115 -15 0 -19 -4 -15 -16z"/>
<path d="M2047 812 c-35 -38 -17 -77 51 -114 33 -18 41 -45 20 -66 -15 -15
-51 -15 -66 0 -17 17 -28 2 -12 -17 18 -22 76 -19 101 6 32 32 22 67 -31 104
-32 23 -45 39 -45 56 0 22 4 24 43 23 54 -1 51 20 -4 24 -29 2 -45 -2 -57 -16z"/>
<path d="M2185 820 c3 -5 22 -10 41 -10 l34 0 0 -105 c0 -87 3 -105 15 -105
12 0 15 18 15 105 l0 105 40 0 c22 0 40 5 40 10 0 6 -39 10 -96 10 -61 0 -93
-4 -89 -10z"/>
<path d="M570 373 c198 -173 458 -302 710 -353 129 -26 482 -29 611 -4 276 52
523 177 763 386 6 4 -471 8 -1059 8 l-1069 0 44 -37z"/>
</g>
</svg>
